# File created by Blade
# Date/Time:  Thu Sep 25 14:26:36 2014
# Frame Rate: 120.000 fps
#------------------------------------------------------
:FULLY-SPECIFIED
:DEGREES
2165
root 13.064578 32.425009 -3.159769 374.218026 -66.336657 366.614157
Spine -0.065469 4.722732 -5.874406
Head -25.211093 -10.099277 7.148124
LeftShoulder -6.279375 16.644786 16.742889
LeftArm 34.369226 38.667989 -64.677057
LeftForeArm -0.164184 0.000000 28.429834
LeftHand -27.077472 -0.000000 3.644442
LeftHandThumb1 -26.253704 0.000000 33.147579
RightShoulder -15.616663 9.377408 -20.814373
RightArm 161.580729 -143.383478 280.490132
RightForeArm -20.585195 -0.000000 33.300017
RightHand -4.630134 0.000000 9.413855
RightHandThumb1 -24.326973 -0.000000 -32.862282
LeftUpLeg -21.071128 1.098771 -7.115932
LeftLeg 13.889546 -0.000000 -0.000000
LeftFoot -20.516022 14.297768 -13.618903
LeftToeBase 2.721890 -0.000000 -0.000000
RightUpLeg -44.254742 0.153537 -13.488377
RightLeg 24.836948 -0.000000 -0.000000
RightFoot -8.030042 -1.757161 -0.724056
RightToeBase -10.564343 -0.000000 0.000000
2166
root 12.875815 32.403495 -3.135315 373.876327 -65.518323 366.960159
Spine -0.037021 4.418308 -5.793415
Head -25.308892 -10.191561 7.045316
LeftShoulder -6.141719 16.389122 16.904095
LeftArm 34.414862 38.332629 -64.948506
LeftForeArm 0.018237 -0.000000 28.986990
LeftHand -27.161595 -0.000000 3.996248
LeftHandThumb1 -26.253704 0.000000 33.147579
RightShoulder -15.595371 9.403713 -20.882316
RightArm 161.255496 -143.266888 280.865965
RightForeArm -20.641456 -0.000000 32.837134
RightHand -4.310279 -0.000000 9.327100
RightHandThumb1 -24.326973 -0.000000 -32.862282
LeftUpLeg -20.741406 0.887237 -7.101239
LeftLeg 13.961117 -0.000000 -0.000000
LeftFoot -20.618327 13.673488 -13.646556
LeftToeBase 2.552075 -0.000000 -0.000000
RightUpLeg -43.865324 0.002585 -13.959120
RightLeg 22.488251 -0.000000 -0.000000
RightFoot -7.613474 0.391726 -0.664784
RightToeBase -11.732318 -0.000000 0.000000
2167
root 12.678104 32.381471 -3.109712 373.478884 -64.716896 367.354129
Spine -0.021393 4.174801 -5.784254
Head -25.387389 -10.301214 6.971202
LeftShoulder -6.003756 16.264128 17.058283
LeftArm 34.606581 37.935769 -65.116534
LeftForeArm 0.199279 0.000000 29.549556
LeftHand -27.302042 -0.000000 4.287678
LeftHandThumb1 -26.253704 0.000000 33.147579
RightShoulder -15.638423 9.297774 -20.864071
RightArm 161.110635 -143.084082 281.086134
RightForeArm -20.416622 -0.000000 32.478473
RightHand -4.329883 -0.000000 9.560331
RightHandThumb1 -24.326973 -0.000000 -32.862282
LeftUpLeg -20.328236 0.662252 -7.090797
LeftLeg 13.948172 -0.000000 -0.000000
LeftFoot -20.716084 13.108720 -13.630078
LeftToeBase 2.508827 -0.000000 -0.000000
RightUpLeg -43.444441 -0.010934 -14.530108
RightLeg 20.268208 -0.000000 -0.000000
RightFoot -7.202231 2.467758 -0.410093
RightToeBase -12.611054 -0.000000 0.000000
2168
root 12.475431 32.358491 -3.088776 373.161425 -63.902858 367.648408
Spine -0.001060 3.927196 -5.736317
Head -25.471082 -10.438178 6.898336
LeftShoulder -5.863533 16.092993 17.213312
LeftArm 34.630586 37.529960 -65.410298
LeftForeArm 0.429892 -0.000000 30.258983
LeftHand -27.314070 -0.000000 4.642218
LeftHandThumb1 -26.253704 0.000000 33.147579
RightShoulder -15.603625 9.222535 -20.820992
RightArm 160.943284 -143.028082 281.270933
RightForeArm -20.400229 -0.000000 32.161319
RightHand -4.235885 -0.000000 9.930994
RightHandThumb1 -24.326973 -0.000000 -32.862282
LeftUpLeg -19.921473 0.482542 -7.036335
LeftLeg 14.019189 -0.000000 -0.000000
LeftFoot -20.883552 12.607951 -13.479067
LeftToeBase 2.649448 -0.000000 -0.000000
RightUpLeg -43.012360 0.084645 -15.101303
RightLeg 18.219116 -0.000000 -0.000000
RightFoot -6.603102 4.633160 0.269323
RightToeBase -13.844836 -0.000000 0.000000
2169
root 12.274931 32.336017 -3.074002 372.909940 -62.978239 367.886096
Spine 0.029803 3.565696 -5.628373
Head -25.537870 -10.516621 6.749072
LeftShoulder -5.797833 15.985623 17.336648
LeftArm 34.776465 37.091543 -65.687081
LeftForeArm 0.745588 -0.000000 30.854750
LeftHand -27.092190 -0.000000 4.702072
LeftHandThumb1 -26.253704 0.000000 33.147579
RightShoulder -15.573749 9.224637 -20.825960
RightArm 160.735233 -142.910922 281.496730
RightForeArm -20.159015 -0.000000 31.840271
RightHand -4.164694 -0.000000 10.142731
RightHandThumb1 -24.326973 -0.000000 -32.862282
LeftUpLeg -19.558965 0.230007 -6.939516
LeftLeg 14.089987 -0.000000 -0.000000
LeftFoot -20.922625 11.979312 -13.314132
LeftToeBase 2.644692 -0.000000 -0.000000
RightUpLeg -42.555217 0.133378 -15.665843
RightLeg 16.330664 -0.000000 -0.000000
RightFoot -5.920496 6.931991 0.970161
RightToeBase -15.344870 -0.000000 0.000000
2170
root 12.066950 32.314247 -3.065050 372.776896 -62.075956 368.022722
Spine 0.009146 3.323949 -5.509236
Head -25.617644 -10.668796 6.691731
LeftShoulder -5.696304 15.871561 17.458685
LeftArm 34.954130 36.757417 -65.855738
LeftForeArm 0.918667 -0.000000 31.627067
LeftHand -27.224663 -0.000000 4.980828
LeftHandThumb1 -26.253704 0.000000 33.147579
RightShoulder -15.580511 9.168257 -20.787797
RightArm 160.542098 -142.734044 281.695658
RightForeArm -20.077999 -0.000000 31.558997
RightHand -4.095367 -0.000000 10.810966
RightHandThumb1 -24.326973 -0.000000 -32.862282
LeftUpLeg -19.212771 0.024677 -6.788322
LeftLeg 14.145912 -0.000000 -0.000000
LeftFoot -21.009643 11.307409 -13.332571
LeftToeBase 2.146786 -0.000000 -0.000000
RightUpLeg -42.129927 0.452923 -16.331651
RightLeg 14.675496 -0.000000 -0.000000
RightFoot -5.238631 8.901333 1.964228
RightToeBase -16.681528 -0.000000 0.000000
2171
root 11.864398 32.291973 -3.051517 372.594501 -61.164748 368.245524
Spine -0.044447 3.063685 -5.409814
Head -25.673382 -10.749995 6.511539
LeftShoulder -5.574459 15.716234 17.546732
LeftArm 34.900338 36.335035 -66.184855
LeftForeArm 1.023104 0.000000 32.581311
LeftHand -27.287190 -0.000000 5.497702
LeftHandThumb1 -26.253704 0.000000 33.147579
RightShoulder -15.532874 9.107048 -20.773102
RightArm 160.330828 -142.589807 281.873638
RightForeArm -19.988913 -0.000000 31.361675
RightHand -4.021416 -0.000000 11.123002
RightHandThumb1 -24.326973 -0.000000 -32.862282
LeftUpLeg -18.918797 -0.254421 -6.676696
LeftLeg 14.253060 -0.000000 -0.000000
LeftFoot -21.190587 10.802459 -13.436902
LeftToeBase 2.297639 -0.000000 -0.000000
RightUpLeg -41.734750 0.649833 -16.950893
RightLeg 13.268699 -0.000000 -0.000000
RightFoot -4.667493 10.910920 2.658868
RightToeBase -17.368159 -0.000000 0.000000
2172
root 11.654139 32.270201 -3.047701 372.541435 -60.185503 368.305025
Spine -0.072582 2.767568 -5.207472
Head -25.757550 -10.863570 6.325075
LeftShoulder -5.505818 15.583434 17.591469
LeftArm 34.972912 36.015180 -66.381290
LeftForeArm 1.292230 -0.000000 33.501546
LeftHand -27.210791 -0.000000 5.788087
LeftHandThumb1 -26.253704 0.000000 33.147579
RightShoulder -15.535753 9.034828 -20.754202
RightArm 160.224999 -142.340505 282.005764
RightForeArm -19.872940 0.000000 31.103192
RightHand -3.953309 -0.000000 11.321597
RightHandThumb1 -24.326973 -0.000000 -32.862282
LeftUpLeg -18.620553 -0.525375 -6.476054
LeftLeg 14.367286 -0.000000 -0.000000
LeftFoot -21.276990 10.403280 -13.141265
LeftToeBase 2.238947 -0.000000 -0.000000
RightUpLeg -41.316521 0.960051 -17.523873
RightLeg 12.150619 -0.000000 -0.000000
RightFoot -4.124570 12.550968 3.516391
RightToeBase -18.182546 -0.000000 0.000000
